<?xml version="1.0" encoding="UTF-8" standalone="no"?>
<svg
   xmlns:dc="http://purl.org/dc/elements/1.1/"
   xmlns:cc="http://creativecommons.org/ns#"
   xmlns:rdf="http://www.w3.org/1999/02/22-rdf-syntax-ns#"
   xmlns:svg="http://www.w3.org/2000/svg"
   xmlns="http://www.w3.org/2000/svg"
   xmlns:sodipodi="http://sodipodi.sourceforge.net/DTD/sodipodi-0.dtd"
   xmlns:inkscape="http://www.inkscape.org/namespaces/inkscape"
   width="1052.3622"
   height="744.09448"
   viewBox="-10 -9 1052.3622 744.09448"
   version="1.1"
   id="svg2"
   inkscape:version="0.48.5 r10040"
   sodipodi:docname="wheel_groß.svg">
  <metadata
     id="metadata12">
    <rdf:RDF>
      <cc:Work
         rdf:about="">
        <dc:format>image/svg+xml</dc:format>
        <dc:type
           rdf:resource="http://purl.org/dc/dcmitype/StillImage" />
      </cc:Work>
    </rdf:RDF>
  </metadata>
  <defs
     id="defs10" />
  <sodipodi:namedview
     pagecolor="#ffffff"
     bordercolor="#666666"
     borderopacity="1"
     objecttolerance="10"
     gridtolerance="10"
     guidetolerance="10"
     inkscape:pageopacity="0"
     inkscape:pageshadow="2"
     inkscape:window-width="1436"
     inkscape:window-height="855"
     id="namedview8"
     showgrid="false"
     inkscape:zoom="1.31"
     inkscape:cx="488.62078"
     inkscape:cy="372.36137"
     inkscape:window-x="4"
     inkscape:window-y="0"
     inkscape:window-maximized="1"
     inkscape:current-layer="svg2" />
  <title
     id="title4">OpenSCAD Model</title>
  <path
     sodipodi:type="arc"
     style="fill:none;stroke:#000000;stroke-width:0.32642621;stroke-miterlimit:4;stroke-opacity:1;stroke-dasharray:0.32642621, 0.32642621;stroke-dashoffset:0"
     id="path3757"
     sodipodi:cx="79.389313"
     sodipodi:cy="352.10974"
     sodipodi:rx="34.351147"
     sodipodi:ry="27.099237"
     d="m 113.74046,352.10974 a 34.351147,27.099237 0 1 1 -68.702294,0 34.351147,27.099237 0 1 1 68.702294,0 z"
     transform="matrix(9.7470712,0,0,12.355442,-257.63218,-3987.4242)" />
  <path
     d="m 683.97659,653.67716 41.35365,-30.04493 -1.24981,-0.90822 -17.29496,-19.20852 -12.92378,-22.38462 -7.98777,-24.58257 -2.70168,-25.70627 2.70168,-25.70521 7.98777,-24.58257 12.92378,-22.38463 17.29496,-19.20852 20.9112,-15.19308 23.61324,-10.51283 25.28271,-5.37405 25.84723,0 25.28271,5.37405 1.41125,0.62844 5.34331,-50.83639 -5.34331,-50.83638 -1.41125,0.62844 -25.28271,5.37405 -25.84723,0 -25.28271,-5.37405 -23.61324,-10.51283 -20.9112,-15.19309 -17.29496,-19.20852 -12.92378,-22.38462 -7.98777,-24.58257 -2.70168,-25.70592 2.70168,-25.70556 7.98777,-24.58257 12.92378,-22.38462 17.29496,-19.20852 1.24981,-0.90822 -41.35365,-30.04493 -46.69695,-20.791459 -0.16179,1.536309 -7.98742,24.582564 -12.92344,22.384626 -17.29564,19.20852 -20.91086,15.19308 -23.61289,10.51283 -25.28289,5.37405 -25.84721,0 -25.2829,-5.37405 -23.61289,-10.51283 -20.91085,-15.19308 -17.29566,-19.20852 -12.92342,-22.384626 -7.98742,-24.582564 -0.16179,-1.536309 -46.69626,20.791459 -41.35434,30.04493 1.24981,0.90822 17.29494,19.20852 12.92379,22.38462 7.98777,24.58257 2.70169,25.70556 -2.70169,25.70592 -7.98777,24.58257 -12.92379,22.38462 -17.29494,19.20852 -20.9112,15.19309 -23.61325,10.51283 -25.28272,5.37405 -25.84721,0 -25.28272,-5.37405 -1.41125,-0.62844 -5.34331,50.83638 5.34331,50.83639 1.41125,-0.62844 25.28272,-5.37405 25.84721,0 25.28272,5.37405 23.61325,10.51283 20.9112,15.19308 17.29494,19.20852 12.92379,22.38463 7.98777,24.58257 2.70169,25.70591 -2.70169,25.70557 -7.98777,24.58257 -12.92379,22.38462 -17.29494,19.20852 -1.24981,0.90822 41.35364,30.04493 46.69696,20.79145 0.16179,-1.5363 7.98742,-24.58257 12.92342,-22.38462 17.29566,-19.20853 20.91156,-15.19308 23.61218,-10.51284 25.2829,-5.37404 25.84721,0 25.28289,5.37404 23.61289,10.51284 20.91086,15.19308 17.29564,19.20853 12.92344,22.38462 7.98742,24.58257 0.16179,1.5363 z m -168.53394,-283.60377 -1.44459,-0.30723 -1.34917,-0.60046 -1.19503,-0.86837 -0.98802,-1.09745 -0.739,-1.27911 -0.45602,-1.40469 -0.15469,-1.46884 0.15469,-1.46884 0.45602,-1.40468 0.739,-1.27912 0.98802,-1.09745 1.19503,-0.86836 1.34917,-0.60047 1.44459,-0.30722 1.47691,0 1.44458,0.30722 1.34918,0.60047 1.19503,0.86836 0.98801,1.09745 0.73901,1.27912 0.45601,1.40468 0.15469,1.46884 -0.15469,1.46884 -0.45601,1.40469 -0.73901,1.27911 -0.98801,1.09745 -1.19503,0.86837 -1.34918,0.60046 -1.44458,0.30723 z"
     id="path6"
     inkscape:connector-curvature="0"
     style="fill:none;stroke:#000000;stroke-width:2.04803153;stroke-miterlimit:4;stroke-dasharray:none" />
  <g
     id="g3959"
     transform="translate(144.13386,-163.13385)"
     style="fill:none">
    <g
       id="layer1"
       inkscape:label="Layer 1"
       style="fill:none">
      <g
         transform="translate(372.04724,526.18109)"
         inkscape:label="Gear6"
         id="g4018"
         style="fill:none">
        <path
           inkscape:connector-curvature="0"
           d="m 36.744,-10.435 15.048,-4.273 3.551,-0.121 20.919,10.341 0,8.976 -20.919,10.341 -3.551,-0.121 -15.048,-4.273 -9.335,16.169 11.225,10.895 1.88,3.015 1.504,23.287 -7.773,4.488 -19.416,-12.946 -1.671,-3.135 -3.823,-15.169 -18.67,0 -3.823,15.169 -1.671,3.135 -19.416,12.946 -7.773,-4.488 1.504,-23.287 1.88,-3.015 11.225,-10.895 -9.335,-16.169 -15.048,4.273 -3.551,0.121 -20.919,-10.341 0,-8.976 20.919,-10.341 3.551,0.121 15.048,4.273 9.335,-16.169 -11.225,-10.895 -1.88,-3.015 -1.504,-23.287 7.773,-4.488 19.416,12.946 1.671,3.135 3.823,15.169 18.67,0 3.823,-15.169 1.671,-3.135 19.416,-12.946 7.773,4.488 -1.504,23.287 -1.88,3.015 -11.225,10.895 z"
           style="fill:none;stroke:#000000"
           id="path4020" />
      </g>
      <path
         transform="matrix(0.45245238,0,0,0.45245238,216.99051,355.96005)"
         d="m 365.19689,376.21869 c 0,12.4231 -10.07091,22.49401 -22.49401,22.49401 -12.4231,0 -22.49401,-10.07091 -22.49401,-22.49401 0,-12.4231 10.07091,-22.49401 22.49401,-22.49401 12.4231,0 22.49401,10.07091 22.49401,22.49401 z"
         sodipodi:ry="22.494011"
         sodipodi:rx="22.494011"
         sodipodi:cy="376.21869"
         sodipodi:cx="342.70288"
         id="path4084"
         style="fill:none;fill-opacity:1;stroke:#000000;stroke-width:1.99699092000000000;stroke-linecap:round;stroke-linejoin:round;stroke-miterlimit:4;stroke-opacity:1;stroke-dasharray:none;stroke-dashoffset:0"
         sodipodi:type="arc" />
    </g>
    <g
       id="g3963"
       inkscape:label="Gear36"
       transform="translate(372.04724,526.18109)"
       style="fill:none">
      <path
         id="path3965"
         style="fill:none;stroke:#000000"
         d="m 324.126,-18.885 19.321,3.89 19.355,7.807 0,14.376 -19.355,7.807 -19.321,3.89 -1.644,18.801 18.352,7.186 17.704,11.049 -2.496,14.157 -20.416,4.328 -19.703,0.476 -4.885,18.229 16.826,10.264 15.517,13.956 -4.917,13.509 -20.858,0.717 -19.486,-2.953 -7.976,17.104 14.788,13.029 12.858,16.439 -7.188,12.45 -20.665,-2.916 -18.678,-6.292 -10.825,15.459 12.301,15.4 9.808,18.422 -9.241,11.012 -19.845,-6.46 -17.301,-9.44 -13.345,13.345 9.44,17.301 6.46,19.845 -11.012,9.241 -18.422,-9.808 -15.4,-12.301 -15.459,10.825 6.292,18.678 2.916,20.665 -12.45,7.188 -16.439,-12.858 -13.029,-14.788 -17.104,7.976 2.953,19.486 -0.717,20.858 -13.509,4.917 -13.956,-15.517 -10.264,-16.826 -18.229,4.885 -0.476,19.703 -4.328,20.416 -14.157,2.496 -11.049,-17.704 -7.186,-18.352 -18.801,1.644 -3.89,19.321 -7.807,19.355 -14.376,0 -7.807,-19.355 -3.89,-19.321 -18.801,-1.644 -7.186,18.352 -11.049,17.704 -14.157,-2.496 -4.328,-20.416 -0.476,-19.703 -18.229,-4.885 -10.264,16.826 -13.956,15.517 -13.509,-4.917 -0.717,-20.858 2.953,-19.486 -17.104,-7.976 -13.029,14.788 -16.439,12.858 -12.45,-7.188 2.916,-20.665 6.292,-18.678 -15.459,-10.825 -15.4,12.301 -18.422,9.808 -11.012,-9.241 6.46,-19.845 9.44,-17.301 -13.345,-13.345 -17.301,9.44 -19.845,6.46 -9.241,-11.012 9.808,-18.422 12.301,-15.4 -10.825,-15.459 -18.678,6.292 -20.665,2.916 -7.188,-12.45 12.858,-16.439 14.788,-13.029 -7.976,-17.104 -19.486,2.953 -20.858,-0.717 -4.917,-13.509 15.517,-13.956 16.826,-10.264 -4.885,-18.229 -19.703,-0.476 -20.416,-4.328 -2.496,-14.157 17.704,-11.049 18.352,-7.186 -1.644,-18.801 -19.321,-3.89 -19.355,-7.807 0,-14.376 19.355,-7.807 19.321,-3.89 1.644,-18.801 -18.352,-7.186 -17.704,-11.049 2.496,-14.157 20.416,-4.328 19.703,-0.476 4.885,-18.229 -16.826,-10.264 -15.517,-13.956 4.917,-13.509 20.858,-0.717 19.486,2.953 7.976,-17.104 -14.788,-13.029 -12.858,-16.439 7.188,-12.45 20.665,2.916 18.678,6.292 10.825,-15.459 -12.301,-15.4 -9.808,-18.422 9.241,-11.012 19.845,6.46 17.301,9.44 13.345,-13.345 -9.44,-17.301 -6.46,-19.845 11.012,-9.241 18.422,9.808 15.4,12.301 15.459,-10.825 -6.292,-18.678 -2.916,-20.665 12.45,-7.188 16.439,12.858 13.029,14.788 17.104,-7.976 -2.953,-19.486 0.717,-20.858 13.509,-4.917 13.956,15.517 10.264,16.826 18.229,-4.885 0.476,-19.703 4.328,-20.416 14.157,-2.496 11.049,17.704 7.186,18.352 18.801,-1.644 3.89,-19.321 7.807,-19.355 14.376,0 7.807,19.355 3.89,19.321 18.801,1.644 7.186,-18.352 11.049,-17.704 14.157,2.496 4.328,20.416 0.476,19.703 18.229,4.885 10.264,-16.826 13.956,-15.517 13.509,4.917 0.717,20.858 -2.953,19.486 17.104,7.976 13.029,-14.788 16.439,-12.858 12.45,7.188 -2.916,20.665 -6.292,18.678 15.459,10.825 15.4,-12.301 18.422,-9.808 11.012,9.241 -6.46,19.845 -9.44,17.301 13.345,13.345 17.301,-9.44 19.845,-6.46 9.241,11.012 -9.808,18.422 -12.301,15.4 10.825,15.459 18.678,-6.292 20.665,-2.916 7.188,12.45 -12.858,16.439 -14.788,13.029 7.976,17.104 19.486,-2.953 20.858,0.717 4.917,13.509 -15.517,13.956 -16.826,10.264 4.885,18.229 19.703,0.476 20.416,4.328 2.496,14.157 -17.704,11.049 -18.352,7.186 z"
         inkscape:connector-curvature="0" />
    </g>
  </g>
</svg>
