  0
SECTION
  2
HEADER
  9
$ACADVER
  1
AC1014
  9
$HANDSEED
  5
FFFF
  9
$MEASUREMENT
 70
     1
  0
ENDSEC
  0
SECTION
  2
TABLES
  0
TABLE
  2
VPORT
  5
8
330
0
100
AcDbSymbolTable
 70
     4
  0
VPORT
  5
2E
330
8
100
AcDbSymbolTableRecord
100
AcDbViewportTableRecord
  2
*ACTIVE
 70
     0
 10
0.0
 20
0.0
 11
1.0
 21
1.0
 12
210.0
 22
148.5
 13
0.0
 23
0.0
 14
10.0
 24
10.0
 15
10.0
 25
10.0
 16
0.0
 26
0.0
 36
1.0
 17
0.0
 27
0.0
 37
0.0
 40
341.0
 41
1.24
 42
50.0
 43
0.0
 44
0.0
 50
0.0
 51
0.0
 71
     0
 72
   100
 73
     1
 74
     3
 75
     0
 76
     0
 77
     0
 78
     0
  0
ENDTAB
  0
TABLE
  2
LTYPE
  5
5
330
0
100
AcDbSymbolTable
 70
     1
  0
LTYPE
  5
14
330
5
100
AcDbSymbolTableRecord
100
AcDbLinetypeTableRecord
  2
BYBLOCK
 70
     0
  3

 72
    65
 73
     0
 40
0.0
  0
LTYPE
  5
15
330
5
100
AcDbSymbolTableRecord
100
AcDbLinetypeTableRecord
  2
BYLAYER
 70
     0
  3

 72
    65
 73
     0
 40
0.0
  0
LTYPE
  5
16
330
5
100
AcDbSymbolTableRecord
100
AcDbLinetypeTableRecord
  2
CONTINUOUS
 70
     0
  3
Solid line
 72
    65
 73
     0
 40
0.0
  0
ENDTAB
  0
TABLE
  2
LAYER
  5
2
100
AcDbSymbolTable
 70
2
  0
LAYER
  5
50
100
AcDbSymbolTableRecord
100
AcDbLayerTableRecord
  2
0
 70
0
  6
CONTINUOUS
  0
LAYER
  5
51
100
AcDbSymbolTableRecord
100
AcDbLayerTableRecord
  2
Layer_1
 70
0
  6
CONTINUOUS
  0
ENDTAB
  0
TABLE
  2
STYLE
  5
3
330
0
100
AcDbSymbolTable
 70
     1
  0
STYLE
  5
11
330
3
100
AcDbSymbolTableRecord
100
AcDbTextStyleTableRecord
  2
STANDARD
 70
     0
 40
0.0
 41
1.0
 50
0.0
 71
     0
 42
2.5
  3
txt
  4

  0
ENDTAB
  0
TABLE
  2
VIEW
  5
6
330
0
100
AcDbSymbolTable
 70
     0
  0
ENDTAB
  0
TABLE
  2
UCS
  5
7
330
0
100
AcDbSymbolTable
 70
     0
  0
ENDTAB
  0
TABLE
  2
APPID
  5
9
330
0
100
AcDbSymbolTable
 70
     2
  0
APPID
  5
12
330
9
100
AcDbSymbolTableRecord
100
AcDbRegAppTableRecord
  2
ACAD
 70
     0
  0
ENDTAB
  0
TABLE
  2
DIMSTYLE
  5
A
330
0
100
AcDbSymbolTable
 70
     1
  0
DIMSTYLE
105
27
330
A
100
AcDbSymbolTableRecord
100
AcDbDimStyleTableRecord
  2
ISO-25
 70
     0
  3

  4

  5

  6

  7

 40
1.0
 41
2.5
 42
0.625
 43
3.75
 44
1.25
 45
0.0
 46
0.0
 47
0.0
 48
0.0
140
2.5
141
2.5
142
0.0
143
0.03937007874016
144
1.0
145
0.0
146
1.0
147
0.625
 71
     0
 72
     0
 73
     0
 74
     0
 75
     0
 76
     0
 77
     1
 78
     8
170
     0
171
     3
172
     1
173
     0
174
     0
175
     0
176
     0
177
     0
178
     0
270
     2
271
     2
272
     2
273
     2
274
     3
340
11
275
     0
280
     0
281
     0
282
     0
283
     0
284
     8
285
     0
286
     0
287
     3
288
     0
  0
ENDTAB
  0
TABLE
  2
BLOCK_RECORD
  5
1
330
0
100
AcDbSymbolTable
 70
     1
  0
BLOCK_RECORD
  5
1F
330
1
100
AcDbSymbolTableRecord
100
AcDbBlockTableRecord
  2
*MODEL_SPACE
  0
BLOCK_RECORD
  5
1B
330
1
100
AcDbSymbolTableRecord
100
AcDbBlockTableRecord
  2
*PAPER_SPACE
  0
ENDTAB
  0
ENDSEC
  0
SECTION
  2
BLOCKS
  0
BLOCK
  5
20
330
1F
100
AcDbEntity
  8
0
100
AcDbBlockBegin
  2
*MODEL_SPACE
 70
     0
 10
0.0
 20
0.0
 30
0.0
  3
*MODEL_SPACE
  1

  0
ENDBLK
  5
21
330
1F
100
AcDbEntity
  8
0
100
AcDbBlockEnd
  0
BLOCK
  5
1C
330
1B
100
AcDbEntity
 67
     1
  8
0
100
AcDbBlockBegin
  2
*PAPER_SPACE
  1

  0
ENDBLK
  5
1D
330
1B
100
AcDbEntity
 67
     1
  8
0
100
AcDbBlockEnd
  0
ENDSEC
  0
SECTION
  2
ENTITIES
  0
LWPOLYLINE
  5
100
100
AcDbEntity
  8
0
 62
7
100
AcDbPolyline
 90
217
 70
1
 10
9.147546
 20
0.532968
 30
0.0
 10
9.692827
 20
0.423184
 30
0.0
 10
10.239068
 20
0.202853
 30
0.0
 10
10.239068
 20
-0.202870
 30
0.0
 10
9.692827
 20
-0.423201
 30
0.0
 10
9.147546
 20
-0.532985
 30
0.0
 10
9.101148
 20
-1.063591
 30
0.0
 10
9.619083
 20
-1.266396
 30
0.0
 10
10.118729
 20
-1.578223
 30
0.0
 10
10.048286
 20
-1.977765
 30
0.0
 10
9.472101
 20
-2.099911
 30
0.0
 10
8.916039
 20
-2.113345
 30
0.0
 10
8.778173
 20
-2.627808
 30
0.0
 10
9.253040
 20
-2.917481
 30
0.0
 10
9.690965
 20
-3.311350
 30
0.0
 10
9.552196
 20
-3.692604
 30
0.0
 10
8.963537
 20
-3.712839
 30
0.0
 10
8.413599
 20
-3.629499
 30
0.0
 10
8.188498
 20
-4.112212
 30
0.0
 10
8.605848
 20
-4.479919
 30
0.0
 10
8.968730
 20
-4.943864
 30
0.0
 10
8.765868
 20
-5.295231
 30
0.0
 10
8.182656
 20
-5.212935
 30
0.0
 10
7.655522
 20
-5.035361
 30
0.0
 10
7.350016
 20
-5.471648
 30
0.0
 10
7.697178
 20
-5.906270
 30
0.0
 10
7.973981
 20
-6.426180
 30
0.0
 10
7.713180
 20
-6.736963
 30
0.0
 10
7.153110
 20
-6.554648
 30
0.0
 10
6.664837
 20
-6.288230
 30
0.0
 10
6.288211
 20
-6.664855
 30
0.0
 10
6.554629
 20
-7.153128
 30
0.0
 10
6.736945
 20
-7.713198
 30
0.0
 10
6.426162
 20
-7.974000
 30
0.0
 10
5.906252
 20
-7.697196
 30
0.0
 10
5.471630
 20
-7.350035
 30
0.0
 10
5.035342
 20
-7.655540
 30
0.0
 10
5.212916
 20
-8.182675
 30
0.0
 10
5.295212
 20
-8.765887
 30
0.0
 10
4.943846
 20
-8.968748
 30
0.0
 10
4.479901
 20
-8.605867
 30
0.0
 10
4.112193
 20
-8.188517
 30
0.0
 10
3.629480
 20
-8.413617
 30
0.0
 10
3.712821
 20
-8.963555
 30
0.0
 10
3.692585
 20
-9.552215
 30
0.0
 10
3.311331
 20
-9.690983
 30
0.0
 10
2.917462
 20
-9.253059
 30
0.0
 10
2.627789
 20
-8.778192
 30
0.0
 10
2.113326
 20
-8.916057
 30
0.0
 10
2.099892
 20
-9.472120
 30
0.0
 10
1.977747
 20
-10.048305
 30
0.0
 10
1.578205
 20
-10.118747
 30
0.0
 10
1.266377
 20
-9.619101
 30
0.0
 10
1.063572
 20
-9.101167
 30
0.0
 10
0.532966
 20
-9.147564
 30
0.0
 10
0.423182
 20
-9.692846
 30
0.0
 10
0.202851
 20
-10.239087
 30
0.0
 10
-0.202872
 20
-10.239087
 30
0.0
 10
-0.423202
 20
-9.692846
 30
0.0
 10
-0.532987
 20
-9.147564
 30
0.0
 10
-1.063593
 20
-9.101167
 30
0.0
 10
-1.266398
 20
-9.619101
 30
0.0
 10
-1.578225
 20
-10.118747
 30
0.0
 10
-1.977767
 20
-10.048305
 30
0.0
 10
-2.099913
 20
-9.472120
 30
0.0
 10
-2.113347
 20
-8.916057
 30
0.0
 10
-2.627810
 20
-8.778192
 30
0.0
 10
-2.917482
 20
-9.253059
 30
0.0
 10
-3.311352
 20
-9.690983
 30
0.0
 10
-3.692606
 20
-9.552215
 30
0.0
 10
-3.712841
 20
-8.963555
 30
0.0
 10
-3.629501
 20
-8.413617
 30
0.0
 10
-4.112214
 20
-8.188517
 30
0.0
 10
-4.479921
 20
-8.605867
 30
0.0
 10
-4.943866
 20
-8.968748
 30
0.0
 10
-5.295233
 20
-8.765887
 30
0.0
 10
-5.212937
 20
-8.182675
 30
0.0
 10
-5.035363
 20
-7.655540
 30
0.0
 10
-5.471650
 20
-7.350035
 30
0.0
 10
-5.906272
 20
-7.697196
 30
0.0
 10
-6.426182
 20
-7.974000
 30
0.0
 10
-6.736965
 20
-7.713198
 30
0.0
 10
-6.554650
 20
-7.153128
 30
0.0
 10
-6.288232
 20
-6.664855
 30
0.0
 10
-6.664857
 20
-6.288230
 30
0.0
 10
-7.153130
 20
-6.554648
 30
0.0
 10
-7.713200
 20
-6.736963
 30
0.0
 10
-7.974002
 20
-6.426180
 30
0.0
 10
-7.697198
 20
-5.906270
 30
0.0
 10
-7.350036
 20
-5.471648
 30
0.0
 10
-7.655542
 20
-5.035361
 30
0.0
 10
-8.182677
 20
-5.212935
 30
0.0
 10
-8.765889
 20
-5.295231
 30
0.0
 10
-8.968750
 20
-4.943864
 30
0.0
 10
-8.605869
 20
-4.479919
 30
0.0
 10
-8.188519
 20
-4.112212
 30
0.0
 10
-8.413619
 20
-3.629499
 30
0.0
 10
-8.963557
 20
-3.712839
 30
0.0
 10
-9.552216
 20
-3.692604
 30
0.0
 10
-9.690985
 20
-3.311350
 30
0.0
 10
-9.253061
 20
-2.917481
 30
0.0
 10
-8.778194
 20
-2.627808
 30
0.0
 10
-8.916059
 20
-2.113345
 30
0.0
 10
-9.472122
 20
-2.099911
 30
0.0
 10
-10.048307
 20
-1.977765
 30
0.0
 10
-10.118749
 20
-1.578223
 30
0.0
 10
-9.619103
 20
-1.266396
 30
0.0
 10
-9.101169
 20
-1.063591
 30
0.0
 10
-9.147566
 20
-0.532985
 30
0.0
 10
-9.692848
 20
-0.423201
 30
0.0
 10
-10.239089
 20
-0.202870
 30
0.0
 10
-10.239089
 20
0.202853
 30
0.0
 10
-9.692848
 20
0.423184
 30
0.0
 10
-9.147566
 20
0.532968
 30
0.0
 10
-9.101169
 20
1.063574
 30
0.0
 10
-9.619103
 20
1.266379
 30
0.0
 10
-10.118749
 20
1.578207
 30
0.0
 10
-10.048307
 20
1.977749
 30
0.0
 10
-9.472122
 20
2.099894
 30
0.0
 10
-8.916059
 20
2.113328
 30
0.0
 10
-8.778194
 20
2.627791
 30
0.0
 10
-9.253061
 20
2.917464
 30
0.0
 10
-9.690985
 20
3.311333
 30
0.0
 10
-9.552216
 20
3.692587
 30
0.0
 10
-8.963557
 20
3.712823
 30
0.0
 10
-8.413619
 20
3.629482
 30
0.0
 10
-8.188519
 20
4.112195
 30
0.0
 10
-8.605869
 20
4.479903
 30
0.0
 10
-8.968750
 20
4.943848
 30
0.0
 10
-8.765889
 20
5.295214
 30
0.0
 10
-8.182677
 20
5.212918
 30
0.0
 10
-7.655542
 20
5.035344
 30
0.0
 10
-7.350036
 20
5.471631
 30
0.0
 10
-7.697198
 20
5.906254
 30
0.0
 10
-7.974002
 20
6.426163
 30
0.0
 10
-7.713200
 20
6.736947
 30
0.0
 10
-7.153130
 20
6.554631
 30
0.0
 10
-6.664857
 20
6.288213
 30
0.0
 10
-6.288232
 20
6.664839
 30
0.0
 10
-6.554650
 20
7.153111
 30
0.0
 10
-6.736965
 20
7.713181
 30
0.0
 10
-6.426182
 20
7.973983
 30
0.0
 10
-5.906272
 20
7.697179
 30
0.0
 10
-5.471650
 20
7.350018
 30
0.0
 10
-5.035363
 20
7.655523
 30
0.0
 10
-5.212937
 20
8.182658
 30
0.0
 10
-5.295233
 20
8.765870
 30
0.0
 10
-4.943866
 20
8.968732
 30
0.0
 10
-4.479921
 20
8.605850
 30
0.0
 10
-4.112214
 20
8.188500
 30
0.0
 10
-3.629501
 20
8.413601
 30
0.0
 10
-3.712841
 20
8.963539
 30
0.0
 10
-3.692606
 20
9.552198
 30
0.0
 10
-3.311352
 20
9.690967
 30
0.0
 10
-2.917482
 20
9.253042
 30
0.0
 10
-2.627810
 20
8.778175
 30
0.0
 10
-2.113347
 20
8.916041
 30
0.0
 10
-2.099913
 20
9.472103
 30
0.0
 10
-1.977767
 20
10.048288
 30
0.0
 10
-1.578225
 20
10.118731
 30
0.0
 10
-1.266398
 20
9.619085
 30
0.0
 10
-1.063593
 20
9.101150
 30
0.0
 10
-0.532987
 20
9.147548
 30
0.0
 10
-0.423202
 20
9.692829
 30
0.0
 10
-0.202872
 20
10.239070
 30
0.0
 10
0.202851
 20
10.239070
 30
0.0
 10
0.423182
 20
9.692829
 30
0.0
 10
0.532966
 20
9.147548
 30
0.0
 10
1.063572
 20
9.101150
 30
0.0
 10
1.266377
 20
9.619085
 30
0.0
 10
1.578205
 20
10.118731
 30
0.0
 10
1.977747
 20
10.048288
 30
0.0
 10
2.099892
 20
9.472103
 30
0.0
 10
2.113326
 20
8.916041
 30
0.0
 10
2.627789
 20
8.778175
 30
0.0
 10
2.917462
 20
9.253042
 30
0.0
 10
3.311331
 20
9.690967
 30
0.0
 10
3.692585
 20
9.552198
 30
0.0
 10
3.712821
 20
8.963539
 30
0.0
 10
3.629480
 20
8.413601
 30
0.0
 10
4.112193
 20
8.188500
 30
0.0
 10
4.479901
 20
8.605850
 30
0.0
 10
4.943846
 20
8.968732
 30
0.0
 10
5.295212
 20
8.765870
 30
0.0
 10
5.212916
 20
8.182658
 30
0.0
 10
5.035342
 20
7.655523
 30
0.0
 10
5.471630
 20
7.350018
 30
0.0
 10
5.906252
 20
7.697179
 30
0.0
 10
6.426162
 20
7.973983
 30
0.0
 10
6.736945
 20
7.713181
 30
0.0
 10
6.554629
 20
7.153111
 30
0.0
 10
6.288211
 20
6.664839
 30
0.0
 10
6.664837
 20
6.288213
 30
0.0
 10
7.153110
 20
6.554631
 30
0.0
 10
7.713180
 20
6.736947
 30
0.0
 10
7.973981
 20
6.426163
 30
0.0
 10
7.697178
 20
5.906254
 30
0.0
 10
7.350016
 20
5.471631
 30
0.0
 10
7.655522
 20
5.035344
 30
0.0
 10
8.182656
 20
5.212918
 30
0.0
 10
8.765868
 20
5.295214
 30
0.0
 10
8.968730
 20
4.943848
 30
0.0
 10
8.605848
 20
4.479903
 30
0.0
 10
8.188498
 20
4.112195
 30
0.0
 10
8.413599
 20
3.629482
 30
0.0
 10
8.963537
 20
3.712823
 30
0.0
 10
9.552196
 20
3.692587
 30
0.0
 10
9.690965
 20
3.311333
 30
0.0
 10
9.253040
 20
2.917464
 30
0.0
 10
8.778173
 20
2.627791
 30
0.0
 10
8.916039
 20
2.113328
 30
0.0
 10
9.472101
 20
2.099894
 30
0.0
 10
10.048286
 20
1.977749
 30
0.0
 10
10.118729
 20
1.578207
 30
0.0
 10
9.619083
 20
1.266379
 30
0.0
 10
9.101148
 20
1.063574
 30
0.0
 10
9.147546
 20
0.532968
 30
0.0
  0
ENDSEC
  0
SECTION
  2
OBJECTS
  0
DICTIONARY
  5
C
330
0
100
AcDbDictionary
  3
ACAD_GROUP
350
D
  3
ACAD_MLINESTYLE
350
17
  0
DICTIONARY
  5
D
330
C
100
AcDbDictionary
  0
DICTIONARY
  5
1A
330
C
100
AcDbDictionary
  0
DICTIONARY
  5
17
330
C
100
AcDbDictionary
  3
STANDARD
350
18
  0
DICTIONARY
  5
19
330
C
100
AcDbDictionary
  0
ENDSEC
  0
EOF
